<?xml version="1.0" encoding="UTF-8" standalone="no"?>
<!DOCTYPE svg PUBLIC "-//W3C//DTD SVG 1.1//EN" "http://www.w3.org/Graphics/SVG/1.1/DTD/svg11.dtd">
<svg width="100%" height="100%" viewBox="0 0 2830 485" version="1.1" xmlns="http://www.w3.org/2000/svg" xmlns:xlink="http://www.w3.org/1999/xlink" xml:space="preserve" xmlns:serif="http://www.serif.com/" style="fill-rule:evenodd;clip-rule:evenodd;stroke-linejoin:round;stroke-miterlimit:2;">
    <g transform="matrix(1,0,0,1,-4,-22)">
        <g transform="matrix(4.16667,0,0,4.16667,0,0)">
            <g transform="matrix(0.827091,0,0,0.827091,117.357,-199.481)">
                <path d="M20.17,345C11.79,345 5.431,343.217 0,337.704L6.981,330.722C10.472,334.213 15.205,335.379 20.328,335.379C26.686,335.379 30.101,332.972 30.101,328.554C30.101,326.614 29.559,324.982 28.394,323.898C27.31,322.889 26.068,322.347 23.51,321.956L16.836,321.024C12.104,320.324 8.613,318.856 6.13,316.449C3.491,313.809 2.173,310.242 2.173,305.586C2.173,295.731 9.464,288.83 21.412,288.83C29.017,288.83 34.525,290.69 39.257,295.27L32.432,302.019C28.936,298.68 24.751,298.213 21.103,298.213C15.362,298.213 12.571,301.396 12.571,305.201C12.571,306.594 13.031,308.069 14.197,309.158C15.287,310.166 17.07,311.018 19.319,311.326L25.835,312.259C30.877,312.958 34.058,314.351 36.384,316.525C39.333,319.317 40.656,323.356 40.656,328.24C40.656,338.951 31.733,345 20.17,345Z" style="fill:rgb(235,235,235);fill-rule:nonzero;"/>
            </g>
            <g transform="matrix(0.827091,0,0,0.827091,117.357,-199.481)">
                <path d="M71.142,345C65.093,345 60.127,342.826 56.246,338.951C50.663,333.363 50.814,326.456 50.814,316.915C50.814,307.369 50.663,300.463 56.246,294.879C60.127,290.998 65.093,288.83 71.142,288.83C81.463,288.83 89.53,294.722 91.47,306.285L80.531,306.285C79.447,301.862 76.656,298.447 71.224,298.447C68.275,298.447 65.868,299.536 64.318,301.32C62.219,303.645 61.602,306.285 61.602,316.915C61.602,327.546 62.219,330.18 64.318,332.511C65.868,334.295 68.275,335.379 71.224,335.379C76.656,335.379 79.447,331.963 80.531,327.546L91.47,327.546C89.53,339.103 81.388,345 71.142,345Z" style="fill:rgb(235,235,235);fill-rule:nonzero;"/>
            </g>
            <g transform="matrix(0.827091,0,0,0.827091,117.357,-199.481)">
                <path d="M132.127,344.534L132.127,321.414L113.425,321.414L113.425,344.534L102.643,344.534L102.643,289.296L113.425,289.296L113.425,311.868L132.127,311.868L132.127,289.296L142.909,289.296L142.909,344.534L132.127,344.534Z" style="fill:rgb(235,235,235);fill-rule:nonzero;"/>
            </g>
            <g transform="matrix(0.827091,0,0,0.827091,117.357,-199.481)">
                <path d="M190.314,344.534L168.43,310.627L168.43,344.534L157.648,344.534L157.648,289.296L167.271,289.296L189.148,323.122L189.148,289.296L199.931,289.296L199.931,344.534L190.314,344.534Z" style="fill:rgb(235,235,235);fill-rule:nonzero;"/>
            </g>
            <g transform="matrix(0.827091,0,0,0.827091,117.357,-199.481)">
                <path d="M214.67,344.534L214.67,289.296L251.054,289.296L251.054,298.912L225.451,298.912L225.451,311.868L247.254,311.868L247.254,321.49L225.451,321.49L225.451,334.912L251.054,334.912L251.054,344.534L214.67,344.534Z" style="fill:rgb(235,235,235);fill-rule:nonzero;"/>
            </g>
            <g transform="matrix(0.827091,0,0,0.827091,117.357,-199.481)">
                <path d="M297.527,338.718C293.104,343.293 287.829,345 281.931,345C275.881,345 270.916,342.826 267.034,338.951C261.45,333.363 261.603,326.456 261.603,316.915C261.603,307.369 261.45,300.463 267.034,294.879C270.916,290.998 275.724,288.83 281.931,288.83C294.735,288.83 301.251,297.205 302.726,306.518L291.862,306.518C290.621,301.32 287.444,298.447 281.931,298.447C278.982,298.447 276.581,299.612 275.03,301.396C272.933,303.727 272.391,306.285 272.391,316.915C272.391,327.546 272.933,330.18 275.03,332.511C276.581,334.295 278.982,335.379 281.931,335.379C285.188,335.379 287.829,334.213 289.612,332.279C291.396,330.256 292.095,327.773 292.095,324.906L292.095,322.808L281.931,322.808L281.931,313.809L302.801,313.809L302.801,321.881C302.801,329.871 301.408,334.679 297.527,338.718Z" style="fill:rgb(235,235,235);fill-rule:nonzero;"/>
            </g>
            <g transform="matrix(0.827091,0,0,0.827091,117.357,-199.481)">
                <path d="M349.664,338.718C345.241,343.293 339.967,345 334.068,345C328.019,345 323.054,342.826 319.172,338.951C313.589,333.363 313.74,326.456 313.74,316.915C313.74,307.369 313.589,300.463 319.172,294.879C323.054,290.998 327.861,288.83 334.068,288.83C346.873,288.83 353.389,297.205 354.863,306.518L344,306.518C342.758,301.32 339.582,298.447 334.068,298.447C331.12,298.447 328.719,299.612 327.168,301.396C325.07,303.727 324.528,306.285 324.528,316.915C324.528,327.546 325.07,330.18 327.168,332.511C328.719,334.295 331.12,335.379 334.068,335.379C337.326,335.379 339.967,334.213 341.75,332.279C343.533,330.256 344.232,327.773 344.232,324.906L344.232,322.808L334.068,322.808L334.068,313.809L354.938,313.809L354.938,321.881C354.938,329.871 353.546,334.679 349.664,338.718Z" style="fill:rgb(235,235,235);fill-rule:nonzero;"/>
            </g>
            <g transform="matrix(0.827091,0,0,0.827091,117.357,-199.481)">
                <path d="M367.734,344.534L367.734,289.296L404.124,289.296L404.124,298.912L378.517,298.912L378.517,311.868L400.324,311.868L400.324,321.49L378.517,321.49L378.517,334.912L404.124,334.912L404.124,344.534L367.734,344.534Z" style="fill:rgb(235,235,235);fill-rule:nonzero;"/>
            </g>
            <g transform="matrix(0.827091,0,0,0.827091,117.357,-199.481)">
                <path d="M438.58,321.339L427.32,321.339L427.32,334.912L438.58,334.912C443.464,334.912 445.795,331.812 445.795,328.088C445.795,324.364 443.464,321.339 438.58,321.339ZM437.88,298.912L427.32,298.912L427.32,311.641L437.88,311.641C442.449,311.641 445.014,309.076 445.014,305.277C445.014,301.477 442.449,298.912 437.88,298.912ZM439.664,344.534L416.538,344.534L416.538,289.296L438.731,289.296C449.513,289.296 455.796,295.346 455.796,304.811C455.796,310.942 451.763,314.899 448.978,316.216C452.311,317.766 456.577,321.257 456.577,328.63C456.577,338.951 449.513,344.534 439.664,344.534Z" style="fill:rgb(235,235,235);fill-rule:nonzero;"/>
            </g>
            <g transform="matrix(0.827091,0,0,0.827091,117.357,-199.481)">
                <path d="M492.256,283.783L492.256,274.085L500.87,274.085L500.87,283.783L492.256,283.783ZM494.89,301.396C493.34,299.612 490.938,298.447 487.989,298.447C485.041,298.447 482.558,299.612 481.008,301.396C478.909,303.727 478.374,306.285 478.374,316.915C478.374,327.546 478.909,330.104 481.008,332.43C482.558,334.213 485.041,335.379 487.989,335.379C490.938,335.379 493.34,334.213 494.89,332.43C496.988,330.104 497.606,327.546 497.606,316.915C497.606,306.285 496.988,303.727 494.89,301.396ZM475.11,283.783L475.11,274.085L483.724,274.085L483.724,283.783L475.11,283.783ZM502.886,338.951C499.005,342.826 494.272,345 487.989,345C481.707,345 476.894,342.826 473.012,338.951C467.429,333.363 467.58,326.456 467.58,316.915C467.58,307.369 467.429,300.463 473.012,294.879C476.894,290.998 481.707,288.83 487.989,288.83C494.272,288.83 499.005,290.998 502.886,294.879C508.47,300.463 508.399,307.369 508.399,316.915C508.399,326.456 508.47,333.363 502.886,338.951Z" style="fill:rgb(235,235,235);fill-rule:nonzero;"/>
            </g>
            <g transform="matrix(0.827091,0,0,0.827091,117.357,-199.481)">
                <path d="M548.274,302.328C546.41,300.078 543.927,298.912 540.209,298.912L532.062,298.912L532.062,334.912L540.209,334.912C543.927,334.912 546.41,333.752 548.274,331.503C550.292,329.02 550.606,325.063 550.606,316.682C550.606,308.302 550.292,304.811 548.274,302.328ZM555.805,339.26C552.156,342.903 546.958,344.534 541.212,344.534L521.279,344.534L521.279,289.296L541.212,289.296C546.958,289.296 552.156,290.922 555.805,294.571C562.006,300.778 561.388,308.377 561.388,316.682C561.388,324.982 562.006,333.053 555.805,339.26Z" style="fill:rgb(235,235,235);fill-rule:nonzero;"/>
            </g>
            <g transform="matrix(0.827091,0,0,0.827091,117.357,-199.481)">
                <path d="M574.269,344.534L574.269,289.296L610.658,289.296L610.658,298.912L585.05,298.912L585.05,311.868L606.847,311.868L606.847,321.49L585.05,321.49L585.05,334.912L610.658,334.912L610.658,344.534L574.269,344.534Z" style="fill:rgb(235,235,235);fill-rule:nonzero;"/>
            </g>
            <g transform="matrix(0.827091,0,0,0.827091,117.357,-199.481)">
                <path d="M623.061,344.534L623.061,289.296L633.842,289.296L633.842,334.912L658.902,334.912L658.902,344.534L623.061,344.534Z" style="fill:rgb(235,235,235);fill-rule:nonzero;"/>
            </g>
            <g transform="matrix(0.827091,0,0,0.827091,117.357,-199.481)">
                <rect x="669.533" y="289.296" width="10.782" height="55.238" style="fill:rgb(235,235,235);fill-rule:nonzero;"/>
            </g>
            <g transform="matrix(0.535125,0,0,0.535125,-145.637,4.96347)">
                <path d="M406.922,108.75C407.709,107.421 408.606,105.911 409.457,104.011C411.34,99.804 412.674,90.736 408.251,84.325C403.448,77.361 396.018,73.968 386.296,74.248C374.99,74.569 366.633,82.897 362.652,87.834C357.046,94.786 353.677,104.519 352.82,111.081C352.149,116.198 351.97,118.191 351.935,121.787L349.166,121.799C349.085,117.83 349.207,114.799 349.551,111.402C350.431,102.811 352.121,96.301 355.216,89.646C355.985,87.979 356.94,86.184 357.949,84.278C360.811,78.887 364.371,72.185 366.662,63.181C369.127,53.507 368.439,44.671 364.558,36.174C362.722,32.147 359.628,27.455 356.358,22.489C354.772,20.077 353.129,17.588 351.591,15.105C347.12,7.902 344.16,1.73 344.131,1.672C344.125,1.66 344.113,1.643 344.107,1.631C344.072,1.561 344.037,1.497 343.991,1.433C343.974,1.409 343.956,1.381 343.938,1.357C343.874,1.276 343.804,1.2 343.729,1.13C343.711,1.118 343.693,1.106 343.676,1.095C343.612,1.036 343.548,0.99 343.472,0.943C343.443,0.926 343.408,0.914 343.379,0.897C343.32,0.862 343.256,0.833 343.192,0.809C343.157,0.792 343.116,0.786 343.076,0.774C343.035,0.757 343,0.745 342.965,0.739C342.941,0.728 342.918,0.728 342.895,0.728C342.849,0.716 342.808,0.71 342.761,0.71C342.703,0.704 342.639,0.698 342.58,0.698C342.534,0.698 342.493,0.704 342.446,0.704C342.382,0.71 342.324,0.722 342.26,0.728C342.219,0.739 342.178,0.745 342.138,0.757C342.056,0.78 341.969,0.809 341.893,0.844C341.875,0.85 341.857,0.856 341.846,0.862L341.84,0.862C341.747,0.914 341.654,0.967 341.572,1.031C341.543,1.048 341.514,1.077 341.484,1.1C341.433,1.141 341.386,1.188 341.339,1.235C341.31,1.27 341.281,1.304 341.252,1.34C341.217,1.381 341.176,1.433 341.146,1.485C341.123,1.52 341.1,1.561 341.077,1.602C341.065,1.625 341.048,1.643 341.042,1.672C341.007,1.73 338.058,7.89 333.582,15.111C332.043,17.588 330.4,20.077 328.809,22.489C325.539,27.455 322.45,32.147 320.608,36.174C316.728,44.671 316.04,53.512 318.505,63.181C320.801,72.185 324.362,78.887 327.218,84.278C328.231,86.184 329.182,87.979 329.957,89.646C333.052,96.307 334.742,102.811 335.616,111.402C335.966,114.793 336.082,117.824 336.006,121.799L333.232,121.787C333.197,118.179 333.017,116.192 332.347,111.081C331.495,104.519 328.121,94.792 322.515,87.834C318.534,82.897 310.177,74.575 298.87,74.248C289.149,73.963 281.724,77.361 276.916,84.325C272.492,90.736 273.833,99.804 275.709,104.011C276.561,105.917 277.458,107.421 278.25,108.75C279.37,110.632 280.255,112.118 280.651,114.042C281.328,117.34 280.477,120.919 278.676,122.376C277.947,122.97 277.831,124.048 278.42,124.782C278.513,124.899 280.763,127.644 284.994,127.901C285.227,127.912 285.46,127.924 285.687,127.924C289.802,127.924 293.45,125.634 295.974,121.478C296.434,120.72 296.889,119.934 297.343,119.147C298.835,116.565 300.374,113.896 302.262,112.113C303.422,111.017 305.788,110.282 308.16,110.282C309.617,110.282 311.773,110.551 313.737,111.809C317.042,113.931 319.484,116.46 321.162,121.915C316.885,122.661 313.615,126.397 313.615,130.879C313.615,135.903 317.7,139.994 322.73,139.994L333.576,139.97C333.267,141.352 332.731,143.036 331.927,144.021C329.158,147.378 326.641,149.33 319.828,151.323C310.206,154.144 304.768,158.154 303.224,163.58C302.075,167.59 302.437,171.931 304.284,176.489C304.29,176.512 304.302,176.535 304.313,176.559L305.101,178.279C305.339,178.791 305.817,179.153 306.377,179.251C306.936,179.345 307.507,179.153 307.897,178.744C308.737,177.87 310.631,177.474 314.023,177.474C314.932,177.474 315.958,177.503 317.158,177.556C317.671,177.578 318.173,177.59 318.656,177.59C321.343,177.59 323.837,177.252 326.128,176.576C324.945,178.791 323.966,181.519 323.744,184.66C323.5,188.256 323.639,193.093 326.996,198.647C329.292,202.464 332.422,205.857 334.934,208.584C336.345,210.105 337.563,211.422 338.285,212.442C340.249,215.193 340.96,216.959 340.972,216.977C341.182,217.524 341.66,217.897 342.213,218.008C342.295,218.031 342.376,218.043 342.458,218.055C342.499,218.055 342.528,218.067 342.568,218.067C342.574,218.067 342.586,218.061 342.604,218.061C342.697,218.061 342.79,218.055 342.884,218.037C342.924,218.031 342.965,218.014 343,218.002C343.059,217.99 343.116,217.973 343.163,217.955C343.228,217.932 343.286,217.908 343.338,217.879C343.711,217.699 344.037,217.396 344.201,216.977C344.206,216.959 344.917,215.193 346.882,212.442C347.604,211.422 348.828,210.105 350.232,208.584C352.744,205.857 355.88,202.464 358.177,198.647C361.533,193.093 361.673,188.256 361.423,184.66C361.201,181.519 360.228,178.797 359.045,176.576C361.749,177.375 364.744,177.701 368.008,177.556C373.614,177.305 376.208,177.631 377.269,178.744C377.659,179.153 378.23,179.345 378.796,179.251C379.355,179.153 379.833,178.791 380.066,178.279L380.882,176.489C382.735,171.931 383.091,167.595 381.942,163.58C380.398,158.148 374.967,154.144 365.339,151.323C358.526,149.33 356.008,147.378 353.245,144.021C352.441,143.036 351.905,141.352 351.591,139.97L362.53,139.994C367.554,139.994 371.639,135.903 371.639,130.879C371.639,126.368 368.329,122.615 364.004,121.904C365.683,116.454 368.13,113.931 371.429,111.809C373.394,110.551 375.544,110.282 377.007,110.282C379.379,110.282 381.751,111.017 382.91,112.113C384.793,113.896 386.331,116.565 387.829,119.147C388.278,119.934 388.732,120.72 389.192,121.478C391.723,125.634 395.37,127.924 399.485,127.924C399.707,127.924 399.94,127.912 400.173,127.901C404.41,127.644 406.653,124.899 406.747,124.782C407.342,124.048 407.225,122.97 406.49,122.376C404.689,120.919 403.845,117.34 404.521,114.042C404.917,112.113 405.803,110.626 406.922,108.75Z" style="fill:rgb(235,235,235);fill-rule:nonzero;"/>
            </g>
        </g>
    </g>
</svg>
